<mxfile host="app.diagrams.net" modified="2023-10-03T10:04:55.463Z" agent="Mozilla/5.0 (Macintosh; Intel Mac OS X 10_15_7) AppleWebKit/537.36 (KHTML, like Gecko) Chrome/117.0.0.0 Safari/537.36" etag="QM8buLSs6uE2eqRjuxlP" version="22.0.1" type="device">
  <diagram name="Page-1" id="4LI3vDaMU--zswPYgThX">
    <mxGraphModel dx="1224" dy="821" grid="1" gridSize="10" guides="1" tooltips="1" connect="1" arrows="1" fold="1" page="1" pageScale="1" pageWidth="827" pageHeight="1169" math="0" shadow="0">
      <root>
        <mxCell id="0" />
        <mxCell id="1" parent="0" />
        <mxCell id="2VaZQKtXnHm0qGlytf0m-3" style="edgeStyle=orthogonalEdgeStyle;rounded=0;orthogonalLoop=1;jettySize=auto;html=1;entryX=0.5;entryY=0;entryDx=0;entryDy=0;" edge="1" parent="1" source="2VaZQKtXnHm0qGlytf0m-1" target="2VaZQKtXnHm0qGlytf0m-2">
          <mxGeometry relative="1" as="geometry" />
        </mxCell>
        <mxCell id="2VaZQKtXnHm0qGlytf0m-1" value="Start" style="ellipse;whiteSpace=wrap;html=1;" vertex="1" parent="1">
          <mxGeometry x="389" y="30" width="50" height="40" as="geometry" />
        </mxCell>
        <mxCell id="2VaZQKtXnHm0qGlytf0m-7" style="edgeStyle=orthogonalEdgeStyle;rounded=0;orthogonalLoop=1;jettySize=auto;html=1;entryX=0.5;entryY=0;entryDx=0;entryDy=0;" edge="1" parent="1" source="2VaZQKtXnHm0qGlytf0m-2" target="2VaZQKtXnHm0qGlytf0m-4">
          <mxGeometry relative="1" as="geometry" />
        </mxCell>
        <mxCell id="2VaZQKtXnHm0qGlytf0m-2" value="Enter a year" style="shape=parallelogram;perimeter=parallelogramPerimeter;whiteSpace=wrap;html=1;fixedSize=1;" vertex="1" parent="1">
          <mxGeometry x="354" y="110" width="120" height="60" as="geometry" />
        </mxCell>
        <mxCell id="2VaZQKtXnHm0qGlytf0m-6" style="edgeStyle=orthogonalEdgeStyle;rounded=0;orthogonalLoop=1;jettySize=auto;html=1;" edge="1" parent="1" source="2VaZQKtXnHm0qGlytf0m-4" target="2VaZQKtXnHm0qGlytf0m-5">
          <mxGeometry relative="1" as="geometry" />
        </mxCell>
        <mxCell id="2VaZQKtXnHm0qGlytf0m-8" value="Yes" style="edgeLabel;html=1;align=center;verticalAlign=middle;resizable=0;points=[];" vertex="1" connectable="0" parent="2VaZQKtXnHm0qGlytf0m-6">
          <mxGeometry x="-0.0749" y="-2" relative="1" as="geometry">
            <mxPoint as="offset" />
          </mxGeometry>
        </mxCell>
        <mxCell id="2VaZQKtXnHm0qGlytf0m-10" style="edgeStyle=orthogonalEdgeStyle;rounded=0;orthogonalLoop=1;jettySize=auto;html=1;entryX=0.5;entryY=0;entryDx=0;entryDy=0;" edge="1" parent="1" source="2VaZQKtXnHm0qGlytf0m-4" target="2VaZQKtXnHm0qGlytf0m-9">
          <mxGeometry relative="1" as="geometry" />
        </mxCell>
        <mxCell id="2VaZQKtXnHm0qGlytf0m-11" value="No" style="edgeLabel;html=1;align=center;verticalAlign=middle;resizable=0;points=[];" vertex="1" connectable="0" parent="2VaZQKtXnHm0qGlytf0m-10">
          <mxGeometry x="-0.1478" relative="1" as="geometry">
            <mxPoint as="offset" />
          </mxGeometry>
        </mxCell>
        <mxCell id="2VaZQKtXnHm0qGlytf0m-4" value="Year divisible by 400?" style="rhombus;whiteSpace=wrap;html=1;" vertex="1" parent="1">
          <mxGeometry x="339" y="225" width="150" height="110" as="geometry" />
        </mxCell>
        <mxCell id="2VaZQKtXnHm0qGlytf0m-27" style="edgeStyle=orthogonalEdgeStyle;rounded=0;orthogonalLoop=1;jettySize=auto;html=1;entryX=0;entryY=0.5;entryDx=0;entryDy=0;" edge="1" parent="1" source="2VaZQKtXnHm0qGlytf0m-5" target="2VaZQKtXnHm0qGlytf0m-25">
          <mxGeometry relative="1" as="geometry">
            <Array as="points">
              <mxPoint x="110" y="280" />
              <mxPoint x="110" y="750" />
            </Array>
          </mxGeometry>
        </mxCell>
        <mxCell id="2VaZQKtXnHm0qGlytf0m-5" value="Display&lt;br&gt;Leap Year" style="shape=parallelogram;perimeter=parallelogramPerimeter;whiteSpace=wrap;html=1;fixedSize=1;" vertex="1" parent="1">
          <mxGeometry x="160" y="250" width="120" height="60" as="geometry" />
        </mxCell>
        <mxCell id="2VaZQKtXnHm0qGlytf0m-12" style="edgeStyle=orthogonalEdgeStyle;rounded=0;orthogonalLoop=1;jettySize=auto;html=1;entryX=0.5;entryY=1;entryDx=0;entryDy=0;" edge="1" parent="1" source="2VaZQKtXnHm0qGlytf0m-9" target="2VaZQKtXnHm0qGlytf0m-5">
          <mxGeometry relative="1" as="geometry" />
        </mxCell>
        <mxCell id="2VaZQKtXnHm0qGlytf0m-13" value="Yes" style="edgeLabel;html=1;align=center;verticalAlign=middle;resizable=0;points=[];" vertex="1" connectable="0" parent="2VaZQKtXnHm0qGlytf0m-12">
          <mxGeometry x="0.3575" y="1" relative="1" as="geometry">
            <mxPoint as="offset" />
          </mxGeometry>
        </mxCell>
        <mxCell id="2VaZQKtXnHm0qGlytf0m-20" style="edgeStyle=orthogonalEdgeStyle;rounded=0;orthogonalLoop=1;jettySize=auto;html=1;" edge="1" parent="1" source="2VaZQKtXnHm0qGlytf0m-9" target="2VaZQKtXnHm0qGlytf0m-19">
          <mxGeometry relative="1" as="geometry" />
        </mxCell>
        <mxCell id="2VaZQKtXnHm0qGlytf0m-21" value="No" style="edgeLabel;html=1;align=center;verticalAlign=middle;resizable=0;points=[];" vertex="1" connectable="0" parent="2VaZQKtXnHm0qGlytf0m-20">
          <mxGeometry x="0.0219" y="-1" relative="1" as="geometry">
            <mxPoint as="offset" />
          </mxGeometry>
        </mxCell>
        <mxCell id="2VaZQKtXnHm0qGlytf0m-9" value="Year divisible by 100?" style="rhombus;whiteSpace=wrap;html=1;" vertex="1" parent="1">
          <mxGeometry x="339" y="410" width="150" height="110" as="geometry" />
        </mxCell>
        <mxCell id="2VaZQKtXnHm0qGlytf0m-26" style="edgeStyle=orthogonalEdgeStyle;rounded=0;orthogonalLoop=1;jettySize=auto;html=1;entryX=1;entryY=0.5;entryDx=0;entryDy=0;" edge="1" parent="1" source="2VaZQKtXnHm0qGlytf0m-14" target="2VaZQKtXnHm0qGlytf0m-25">
          <mxGeometry relative="1" as="geometry">
            <Array as="points">
              <mxPoint x="700" y="280" />
              <mxPoint x="700" y="750" />
            </Array>
          </mxGeometry>
        </mxCell>
        <mxCell id="2VaZQKtXnHm0qGlytf0m-14" value="Display&lt;br&gt;Not a Leap Year" style="shape=parallelogram;perimeter=parallelogramPerimeter;whiteSpace=wrap;html=1;fixedSize=1;" vertex="1" parent="1">
          <mxGeometry x="550" y="250" width="120" height="60" as="geometry" />
        </mxCell>
        <mxCell id="2VaZQKtXnHm0qGlytf0m-22" style="edgeStyle=orthogonalEdgeStyle;rounded=0;orthogonalLoop=1;jettySize=auto;html=1;" edge="1" parent="1" source="2VaZQKtXnHm0qGlytf0m-19">
          <mxGeometry relative="1" as="geometry">
            <mxPoint x="220" y="460" as="targetPoint" />
          </mxGeometry>
        </mxCell>
        <mxCell id="2VaZQKtXnHm0qGlytf0m-23" value="Yes" style="edgeLabel;html=1;align=center;verticalAlign=middle;resizable=0;points=[];" vertex="1" connectable="0" parent="2VaZQKtXnHm0qGlytf0m-22">
          <mxGeometry x="0.2596" y="1" relative="1" as="geometry">
            <mxPoint as="offset" />
          </mxGeometry>
        </mxCell>
        <mxCell id="2VaZQKtXnHm0qGlytf0m-24" style="edgeStyle=orthogonalEdgeStyle;rounded=0;orthogonalLoop=1;jettySize=auto;html=1;entryX=0.5;entryY=1;entryDx=0;entryDy=0;" edge="1" parent="1" source="2VaZQKtXnHm0qGlytf0m-19" target="2VaZQKtXnHm0qGlytf0m-14">
          <mxGeometry relative="1" as="geometry" />
        </mxCell>
        <mxCell id="2VaZQKtXnHm0qGlytf0m-19" value="Year divisible by 4?" style="rhombus;whiteSpace=wrap;html=1;" vertex="1" parent="1">
          <mxGeometry x="339" y="584" width="150" height="110" as="geometry" />
        </mxCell>
        <mxCell id="2VaZQKtXnHm0qGlytf0m-25" value="Stop" style="ellipse;whiteSpace=wrap;html=1;" vertex="1" parent="1">
          <mxGeometry x="389" y="730" width="50" height="40" as="geometry" />
        </mxCell>
      </root>
    </mxGraphModel>
  </diagram>
</mxfile>
